<!-- Generator: Adobe Illustrator 16.0.0, SVG Export Plug-In . SVG Version: 6.00 Build 0)  -->
<svg xmlns:rdf="http://www.w3.org/1999/02/22-rdf-syntax-ns#" xmlns="http://www.w3.org/2000/svg" version="1.1" xml:space="preserve" height="132.51" width="515.93" enable-background="new 0 0 595.28 841.89" y="0px" x="0px" xmlns:cc="http://creativecommons.org/ns#" xmlns:dc="http://purl.org/dc/elements/1.1/" viewBox="0 0 515.92698 132.51249"><metadata><rdf:RDF><cc:Work rdf:about=""><dc:format>image/svg+xml</dc:format><dc:type rdf:resource="http://purl.org/dc/dcmitype/StillImage"/><dc:title/></cc:Work></rdf:RDF></metadata><g transform="translate(-39.678009,-286.1195)"><path d="m500.17,298.95c-3.933-7.968-11.454-10.116-16.24-10.137-1.955-0.006-7.824,0-7.824,0l-37.151,78.664v-78.638h-26.902l-36.942,81.105-35.376-81.121h-27.858v105.91h-66.199v-35.027h59.099v-19.91h-59.09v-30.409h59.884v-20.405h-84.107v78.471s-27.153-57.509-32.158-68.116c-5.003-10.608-16.604-10.52-16.604-10.52h-7.668l-36.91,78.17s-4.834-14.505-29.507-23.173c-24.673-8.669-31.542-13.537-29.074-24.606,2.467-11.069,25.005-15.872,40.943-0.601,11.203-11.203,4.262-27.434-8.602-30.764-19.133-4.951-47.967,0.311-55.926,22.228-8.193,22.566,1.222,42.256,37.254,53.969,11.114,3.645,21.961,8.535,21.961,17.071,0,8.535-0.022,35.121-0.022,35.121h15.136c11.648,0,16.571-10.569,16.571-10.569l7.07-14.869h61.749l11.771,25.438h100.43c11.319,0,18.271-8.973,18.271-18.271v-67.353l38.494,86.174,40.125-85.557v85.006h16.973c6.175,0,12.656-3.033,16.305-10.785,3.649-7.751,6.917-14.672,6.917-14.672h61.734l11.835,25.457h27.074c-0.002,0.002-50.534-107.33-55.439-117.27zm-346.88,71.245,21.506-45.813,21.171,45.813h-42.677zm311.01,0,21.506-45.813,21.173,45.813h-42.679z"/><path d="m99.999,391.68c-3.074,2.309-7.271,3.703-11.902,3.703-11.467,0-20.706-3.183-30.898-11.626l-17.521,17.68c15.293,12.266,27.554,17.2,49.534,17.2,3.78,0,7.386-0.403,10.787-1.151v-25.806z" fill="#e30613"/></g><path d="m65.529,110.19c0-10.246-0.64991-19.844-1.4443-21.328-1.892-3.536-8.614-7.333-22.277-12.584-12.144-4.667-24.096-11.757-29.21-17.329-12.899-14.055-9.2179-38.667,7.45-49.807,9.044-6.0439,15.428-7.8047,28.334-7.8151,12.971-0.0104,21.75,3.8378,25.163,11.03,2.9446,6.2053,2.9593,8.7092,0.08381,14.27l-2.2779,4.4049-6.3669-3.7312c-16.333-9.572-36.519-4.0742-36.519,9.9462,0,6.4542,6.6482,11.791,22.592,18.136,18.257,7.2652,24.863,11.268,32.026,19.406l5.986,6.8,8.282-17.526c4.559-9.639,12.849-27.2,18.429-39.023l10.15-21.497,6.4292,0.31128c11.922,0.57721,11.946,0.61189,36.626,51.578l12.922,26.686,0.39525-38.917,0.39526-38.917h41.487,41.487v8.8953,8.8953h-30.392-30.392v16.308,16.308h29.651,29.651v8.8953,8.8953h-29.651-29.651v18.532,18.532h34.099,34.099v-53.372-53.372h13.075,13.075l17.688,40.765c9.7282,22.421,18.067,40.767,18.53,40.77,0.46312,0.0031,9.1361-18.336,19.273-40.754l18.431-40.759,12.948-0.010877,12.948-0.010877,0.39486,39.657,0.39485,39.657,18.462-39.014c10.154-21.458,19.018-39.358,19.698-39.778,3.242-2.0037,13.924,1.5479,17.942,5.9654,3.5841,3.9402,57.313,114.87,57.313,118.32,0,0.66308-5.3805,1.2056-11.957,1.2056h-11.957l-5.9054-12.602-5.9054-12.602h-31.455-31.455l-4.6738,10.007c-5.9571,12.755-9.8173,15.196-24.028,15.196h-10.497l-0.39337-42.479-0.39338-42.479-19.201,41.093c-10.56,22.601-19.633,41.36-20.16,41.686-0.52783,0.32622-9.2334-18.055-19.346-40.847-10.112-22.792-18.886-41.449-19.498-41.46-0.61155-0.01087-1.1119,16.025-1.1119,35.635,0,28.733-0.43007,36.487-2.2154,39.939-4.6758,9.042-3.7706,8.9117-61.932,8.9117h-53.11l-5.7945-12.602-5.7945-12.602h-31.121-31.121l-5.2925,10.072c-6.6146,12.588-10.589,15.132-23.637,15.132h-9.7785v-18.629zm85.201-40.117c-3.6426-7.8483-8.382-18.189-10.532-22.98-2.1498-4.7905-4.383-8.71-4.9625-8.71-0.80737,0-19.469,37.839-22.015,44.64-0.27512,0.73474,9.3968,1.3198,21.819,1.3198h22.313l-6.623-14.27zm316.58,13.157c0.0204-2.76-20.167-44.756-21.337-44.386-1.2192,0.38514-21.417,41.913-21.589,44.386-0.0423,0.61156,9.5967,1.1119,21.42,1.1119s21.501-0.50036,21.505-1.1119z" stroke-dashoffset="0" transform="matrix(1.0000188,0,0,1.0000188,-0.00636446,0)" stroke="#ffffff" stroke-miterlimit="4" stroke-dasharray="none" stroke-width="5.48546267" fill="#ffffff"/></svg>
